<?xml version="1.0" encoding="UTF-8" standalone="no"?>
<svg
   viewBox="0 0 512 512"
   width="512"
   height="512"
   version="1.1"
   id="svg6"
   xmlns="http://www.w3.org/2000/svg"
   xmlns:svg="http://www.w3.org/2000/svg">
  <title
     id="title1">codeonym</title>
  <defs
     id="defs3">
    <linearGradient
       id="f-edge"
       x1="0"
       y1="0"
       x2="1"
       y2="1">
      <stop
         offset="0"
         stop-color="#bc8fff"
         id="stop1" />
      <stop
         offset=".55"
         stop-color="#945ff9"
         id="stop2" />
      <stop
         offset="1"
         stop-color="#30c0f8"
         id="stop3" />
    </linearGradient>
  </defs>
  <path
     d="M256.00,42.00 L441.33,149.00 L441.33,363.00 L256.00,470.00 L70.67,363.00 L70.67,149.00 Z"
     fill="#05040b"
     stroke="url(#f-edge)"
     stroke-width="44"
     stroke-linejoin="round"
     id="path3" />
  <g
     fill="none"
     stroke="#f4f2fb"
     stroke-width="44"
     stroke-linecap="round"
     stroke-linejoin="round"
     id="g5">
    <path
       d="M170,168 L104,240 L170,312"
       id="path4" />
    <path
       d="M342,168 L408,240 L342,312"
       id="path5" />
  </g>
  <path
     d="M256,166 C270.8,225.2 270.8,225.2 330,240 C270.8,254.8 270.8,254.8 256,314 C241.2,254.8 241.2,254.8 182,240 C241.2,225.2 241.2,225.2 256,166 Z"
     fill="#30c0f8"
     id="path6" />
  <rect
     x="176"
     y="346"
     width="160"
     height="26"
     rx="8"
     fill="#f0b135"
     id="rect6" />
</svg>
